<?xml version="1.0" encoding="UTF-8" standalone="no"?>
<!DOCTYPE svg PUBLIC "-//W3C//DTD SVG 1.1//EN" "http://www.w3.org/Graphics/SVG/1.1/DTD/svg11.dtd">
<svg xmlns="http://www.w3.org/2000/svg" version="1.1" viewBox="0.00 0.00 1024.00 1024.00">
<path fill="#000000" d="
  M 634.58 431.76
  Q 576.21 458.77 523.62 489.63
  Q 459.99 526.97 447.49 534.26
  Q 420.31 550.10 391.29 563.28
  Q 364.28 575.53 336.82 583.32
  Q 286.41 597.61 234.78 593.60
  Q 228.88 593.14 220.75 591.98
  Q 205.31 589.75 190.31 583.92
  Q 172.21 576.88 157.44 562.55
  C 145.11 550.59 136.93 535.46 132.55 518.73
  C 129.71 507.86 129.12 497.04 129.14 485.00
  Q 129.24 378.33 129.18 202.00
  Q 129.17 192.56 130.55 183.78
  C 136.36 146.83 165.51 118.82 201.70 111.44
  Q 207.88 110.18 215.86 109.69
  Q 221.51 109.34 230.15 109.34
  Q 400.88 109.32 798.25 109.36
  Q 811.34 109.36 823.73 112.10
  Q 835.81 114.76 846.58 120.63
  Q 876.08 136.70 887.63 166.67
  Q 890.13 173.16 891.96 183.58
  Q 893.12 190.17 893.15 201.01
  Q 893.24 237.70 892.92 248.75
  Q 892.81 252.26 891.43 260.49
  Q 887.56 283.57 873.82 302.56
  Q 862.00 318.89 846.01 330.51
  Q 829.86 342.24 810.44 351.93
  C 800.43 356.92 789.52 362.28 780.73 366.15
  Q 743.44 382.53 708.41 398.19
  Q 670.67 415.06 634.58 431.76
  Z"
/>
<path fill="#000000" d="
  M 624.67 903.74
  Q 619.71 902.50 610.26 899.26
  Q 560.76 882.31 523.96 845.83
  C 493.24 815.37 474.79 775.84 469.53 732.99
  C 467.53 716.68 466.99 700.28 468.13 683.25
  Q 473.84 598.00 536.08 540.83
  Q 552.35 525.89 573.37 512.13
  Q 598.22 495.85 625.22 481.98
  C 659.40 464.41 693.94 448.45 729.30 432.08
  C 750.91 422.07 771.62 412.50 794.51 406.97
  Q 803.85 404.71 812.63 403.86
  Q 823.47 402.81 830.99 403.22
  Q 842.75 403.88 854.24 408.28
  C 869.45 414.10 883.01 426.35 888.67 441.78
  Q 893.13 453.96 893.07 467.75
  Q 892.92 502.48 892.99 695.03
  Q 893.00 713.25 891.98 723.45
  Q 890.50 738.23 887.50 751.55
  Q 876.10 802.11 841.48 840.80
  Q 804.67 881.92 752.76 900.02
  C 721.32 910.99 687.78 913.63 655.00 909.68
  Q 648.20 908.87 639.74 907.20
  Q 633.81 906.03 624.67 903.74
  Z"
/>
<path fill="#000000" d="
  M 423.74 813.32
  C 407.39 855.49 371.86 888.16 329.46 903.44
  Q 313.51 909.19 293.39 911.38
  Q 287.50 912.02 278.58 912.02
  Q 265.97 912.02 263.75 911.80
  Q 254.35 910.88 243.40 908.79
  Q 232.85 906.78 219.90 902.12
  Q 190.95 891.71 168.81 870.25
  Q 139.87 842.20 132.09 802.71
  C 127.90 781.42 129.32 758.97 136.37 737.93
  Q 144.58 713.44 160.31 692.79
  Q 197.09 644.48 254.54 627.24
  Q 267.00 623.51 279.71 622.04
  Q 292.18 620.61 305.39 621.18
  Q 309.78 621.37 319.66 622.88
  Q 327.86 624.13 333.74 625.75
  Q 356.49 632.00 375.65 645.38
  Q 394.56 658.59 408.02 678.39
  Q 427.68 707.31 431.94 743.50
  Q 432.91 751.74 433.01 762.65
  Q 433.11 773.00 431.87 781.79
  Q 429.52 798.40 423.74 813.32
  Z"
/>
</svg>
