<svg xmlns="http://www.w3.org/2000/svg" viewBox="0 0 32 32" width="32" height="32">
      <path d="M 8 10 L 8 22 Q 8 24 10 24 Q 11 24 12 23 L 24 17 Q 26 15.5 26 14 Q 26 12.5 24 11 L 12 5 Q 11 4 10 4 Q 8 4 8 6 Z"
            fill="#C5ADC5" stroke="none" style="border-radius: 20px" />

      <path d="M 12 16 L 12 28 Q 12 30 14 30 Q 15 30 16 29 L 28 23 Q 30 21.5 30 20 Q 30 18.5 28 17 L 16 11 Q 15 10 14 10 Q 12 10 12 12 Z"
            fill="rgba(242, 204, 143, 1)" stroke="none" style="border-radius: 20px" />
</svg>