<svg xmlns="http://www.w3.org/2000/svg" viewBox="0 0 96 96" width="96" height="96">
    <path
        d="M 24 30 L 24 66 Q 24 72 30 72 Q 33 72 36 69 L 72 51 Q 78 46.5 78 42 Q 78 37.5 72 33 L 36 15 Q 33 12 30 12 Q 24 12 24 18 Z"
        fill="#C5ADC5" stroke="none" style="border-radius: 20px" />

    <path
        d="M 36 48 L 36 84 Q 36 90 42 90 Q 45 90 48 87 L 84 69 Q 90 64.5 90 60 Q 90 55.5 84 51 L 48 33 Q 45 30 42 30 Q 36 30 36 36 Z"
        fill="rgba(242, 204, 143, 1)" stroke="none" style="border-radius: 20px" />
</svg>